<svg width="212" height="229" viewBox="0 0 212 229" fill="none" xmlns="http://www.w3.org/2000/svg">
<g clip-path="url(#clip0_1_918)">
<path d="M108.552 10.2499C108.154 10.4483 107.757 10.7128 107.359 11.0434C105.768 12.2337 104.642 14.0192 103.316 15.6062C100.997 18.582 98.2799 21.161 95.2977 23.2109C95.0989 24.798 93.7735 26.0544 92.3818 26.0544C92.3155 27.2447 92.183 28.3689 92.1167 29.5592C88.4055 34.0559 85.4896 39.4783 83.7003 45.2976C82.9713 45.3637 82.1761 45.4959 81.4471 45.6282C80.0554 48.6039 78.73 51.5136 77.3383 54.4893C76.5431 54.6877 75.8804 55.349 75.2177 56.0102C73.8922 57.3989 72.5668 58.7876 71.8379 60.6392C70.9101 63.0198 71.1751 65.8633 70.2474 68.2438C69.7172 69.5003 68.9219 70.5583 68.5243 71.8147C68.193 72.8728 68.2592 74.1292 68.8557 74.9889C68.7231 75.3195 68.5243 75.584 68.3918 75.9147C66.4699 76.9066 64.8132 78.5598 63.7528 80.742C63.2227 81.0065 62.6262 81.271 62.0961 81.4694C61.0357 82.9903 59.9754 84.5113 58.9151 86.0322C57.921 86.0983 56.9269 86.2306 55.9329 86.2967C54.74 87.6854 53.6134 89.0741 52.4205 90.5289C53.8122 90.8595 55.1376 91.2563 56.5293 91.653C56.6619 92.4466 56.3968 93.3062 55.8666 93.9014C55.9329 95.8191 55.9992 97.7368 56.0654 99.6545C55.6015 100.58 55.0714 101.572 54.6075 102.498L53.7459 104.217C53.5471 104.68 53.2821 105.143 53.0832 105.54C53.0832 105.606 53.017 105.672 53.017 105.672C51.3602 105.143 49.7034 105.077 48.0467 105.408C48.5768 107.127 49.1733 108.78 49.7034 110.499C48.1792 113.078 46.655 115.723 45.1308 118.302C45.8597 119.427 44.9982 121.08 43.8716 121.477C42.745 121.873 41.5521 121.344 40.4255 120.881C40.9557 123.196 40.4255 125.775 39.1001 127.56C39.8954 127.957 39.9616 129.28 39.564 130.139C39.1664 130.999 38.3711 131.528 37.7747 132.123C35.9191 133.975 34.9251 136.686 33.931 139.265C33.3346 140.918 32.7381 142.571 32.1417 144.225C30.6837 148.258 27.3702 149.382 25.6472 153.284C25.4484 153.747 25.9785 155.4 26.2436 156.656C25.9123 157.318 25.5146 157.913 25.1833 158.574C25.0507 158.64 24.9845 158.64 24.8519 158.706C23.4602 159.235 21.936 162.013 21.8697 162.013C21.8697 162.013 21.5384 163.071 21.4721 163.997L21.207 163.931C21.207 163.005 21.2733 162.079 21.3396 161.153C21.3396 160.823 21.4058 160.492 21.4058 160.161C21.5384 158.177 21.7372 156.127 22.0023 154.144C22.0686 153.747 22.0686 153.35 22.1348 153.019C22.2011 152.623 22.2674 152.226 22.2674 151.895C22.5324 149.911 22.8638 147.928 23.1289 145.944C23.2614 145.283 23.3277 144.687 23.4602 144.092C23.659 142.77 23.9241 141.381 24.1892 140.058C24.3218 139.199 24.5206 138.339 24.7194 137.479C24.8519 136.686 25.0507 135.892 25.2495 135.099C25.2495 135.033 25.2495 134.967 25.3158 134.901C25.846 132.322 26.5087 129.743 27.1051 127.164C27.1714 127.031 27.1714 126.833 27.2377 126.635C27.3702 125.973 27.569 125.378 27.7678 124.717C27.9004 124.254 28.0329 123.791 28.0992 123.328C28.298 122.535 28.5631 121.741 28.7619 120.948C29.1595 119.559 29.5571 118.236 29.9548 116.848C30.3524 115.525 30.75 114.203 31.2139 112.814C31.479 111.954 31.7441 111.161 32.0092 110.301C32.2742 109.441 32.5393 108.648 32.8707 107.788C36.9132 95.8852 41.8172 84.2467 47.5828 73.2034C48.4443 71.5502 49.3058 69.897 50.1673 68.31C50.2336 68.1777 50.2999 68.0455 50.3661 67.9793C50.6975 67.3181 51.0951 66.6568 51.4265 66.0616L52.0892 64.9375C54.4087 60.9037 56.8607 57.0022 59.379 53.1667C60.5056 51.4474 61.6984 49.7942 62.8913 48.141C63.1564 47.7443 63.4877 47.3475 63.7528 46.9507C64.5481 45.8927 65.3433 44.8347 66.1386 43.7766C68.5243 40.7347 70.9763 37.759 73.5609 34.9816C76.0792 32.1382 78.8625 29.4931 81.6459 26.9141C83.0376 25.6576 84.4956 24.4674 85.9535 23.2109C86.6825 22.6158 87.4115 22.0206 88.1404 21.4916L90.3936 19.8384C91.1889 19.3094 91.9179 18.7142 92.7131 18.2514C93.5084 17.7885 94.3036 17.2594 95.0989 16.7965C96.6894 15.8708 98.2136 14.8788 99.9366 14.0853C100.666 13.6885 101.461 13.3579 102.19 12.9611C102.256 12.9611 102.322 12.895 102.389 12.895C103.184 12.4982 104.045 12.1015 104.907 11.837C106.034 11.1096 107.293 10.6467 108.552 10.2499Z" fill="#EBE3CC"/>
<path d="M108.552 10.2499C108.154 10.4483 107.757 10.7128 107.359 11.0434C105.768 12.2337 104.642 14.0192 103.316 15.6062C100.997 18.582 98.2799 21.161 95.2977 23.2109C95.0989 24.798 93.7735 26.0544 92.3818 26.0544C92.3155 27.2447 92.183 28.3689 92.1167 29.5592C88.4055 34.0559 85.4896 39.4783 83.7003 45.2976C82.9713 45.3637 82.1761 45.4959 81.4471 45.6282C80.0554 48.6039 78.73 51.5136 77.3383 54.4893C76.5431 54.6877 75.8804 55.349 75.2177 56.0102C73.8922 57.3989 72.5668 58.7876 71.8379 60.6392C70.9101 63.0198 71.1751 65.8633 70.2474 68.2438C69.7172 69.5003 68.9219 70.5583 68.5243 71.8147C68.193 72.8728 68.2592 74.1292 68.8557 74.9889C68.7231 75.3195 68.5243 75.584 68.3918 75.9147C66.4699 76.9066 64.8132 78.5598 63.7528 80.742C63.2227 81.0065 62.6262 81.271 62.0961 81.4694C61.0357 82.9903 59.9754 84.5113 58.9151 86.0322C57.921 86.0983 56.9269 86.2306 55.9329 86.2967C54.74 87.6854 53.6134 89.0741 52.4205 90.5289C53.8122 90.8595 55.1376 91.2563 56.5293 91.653C56.6619 92.4466 56.3968 93.3062 55.8666 93.9014C55.9329 95.8191 55.9992 97.7368 56.0654 99.6545C55.6015 100.58 55.0714 101.572 54.6075 102.498L53.7459 104.217C53.5471 104.68 53.2821 105.143 53.0832 105.54C53.0832 105.606 53.017 105.672 53.017 105.672C51.3602 105.143 49.7034 105.077 48.0467 105.408C48.5768 107.127 49.1733 108.78 49.7034 110.499C48.1792 113.078 46.655 115.723 45.1308 118.302C45.8597 119.427 44.9982 121.08 43.8716 121.477C42.745 121.873 41.5521 121.344 40.4255 120.881C40.9557 123.196 40.4255 125.775 39.1001 127.56C39.8954 127.957 39.9616 129.28 39.564 130.139C39.1664 130.999 38.3711 131.528 37.7747 132.123C35.9191 133.975 34.9251 136.686 33.931 139.265C33.3346 140.918 32.7381 142.571 32.1417 144.225C30.6837 148.258 27.3702 149.382 25.6472 153.284C25.4484 153.747 25.9785 155.4 26.2436 156.656C25.9123 157.318 25.5146 157.913 25.1833 158.574C25.0507 158.64 24.9845 158.64 24.8519 158.706C23.4602 159.235 21.936 162.013 21.8697 162.013C21.8697 162.013 21.5384 163.071 21.4721 163.997L21.207 163.931C21.207 163.005 21.2733 162.079 21.3396 161.153C21.3396 160.823 21.4058 160.492 21.4058 160.161C21.5384 158.177 21.7372 156.127 22.0023 154.144C22.0686 153.747 22.0686 153.35 22.1348 153.019C22.0686 152.028 22.0023 151.036 21.8035 150.044C21.6047 149.184 21.4058 148.324 21.5384 147.399C21.7372 146.076 22.665 145.084 23.4602 144.026C23.7253 142.704 23.9241 141.315 24.1892 139.992C24.3218 139.133 24.5206 138.273 24.7194 137.413C24.8519 136.62 25.0507 135.826 25.2495 135.033C25.2495 134.967 25.2495 134.901 25.3158 134.834C25.0507 133.446 24.4543 132.189 23.7253 131.065C24.6531 129.544 25.846 128.155 27.1714 127.097C27.2377 126.965 27.2377 126.767 27.3039 126.568C27.4365 125.907 27.6353 125.312 27.8341 124.651C27.9666 124.188 28.0992 123.725 28.1655 123.262C28.3643 122.469 28.6294 121.675 28.8282 120.881C28.1655 117.972 29.1595 114.599 31.2139 112.814C31.479 111.954 31.7441 111.161 32.0092 110.301C32.2742 109.441 32.5393 108.648 32.8707 107.788C32.7381 107.259 32.7381 106.664 32.7381 106.135C33.0032 102.895 33.9973 99.7867 35.654 97.1416C36.383 95.9513 37.3108 94.8933 37.841 93.5707C39.1001 90.6611 38.7025 86.958 40.4918 84.4451C41.2208 83.4532 42.2148 82.7258 42.6787 81.6016C43.6065 79.5517 42.8776 76.5759 44.4681 75.2534C44.9319 74.8566 45.5284 74.7244 45.926 74.1953C46.5887 73.2034 45.8597 71.6825 46.1911 70.4922C46.655 68.839 48.6431 68.7729 50.1673 68.31C50.2336 68.1777 50.2999 68.0455 50.3661 67.9793C50.6975 67.3181 51.0951 66.6568 51.4265 66.0616L52.0892 64.9375V64.8713C52.2217 62.623 53.8785 60.9037 55.1376 59.2505C56.3968 57.5312 57.3908 54.9522 56.2642 53.1006C57.0595 53.5635 57.9873 52.5716 58.3849 51.5797C58.7825 50.5878 59.0476 49.3975 59.8429 48.9346C60.5056 48.5378 61.2345 48.7362 61.9635 48.6039C62.3611 48.5378 62.6925 48.3394 62.9576 48.141C63.2227 47.7443 63.554 47.3475 63.8191 46.9507C64.4155 45.6943 64.4155 44.0411 63.4877 43.0492C65.4096 42.5202 66.8013 40.1396 66.4699 37.8913C67.7953 39.0154 69.5184 37.3622 70.4462 35.8413C72.5668 32.6011 74.6875 29.4269 76.8082 26.1867C77.2721 25.5254 77.7359 24.798 78.3987 24.4674C79.6578 23.8061 81.2483 24.5996 82.4412 23.8061C83.0376 23.4093 83.369 22.6819 83.7666 22.0206C86.2849 18.2514 91.2552 18.3175 94.635 15.6062C95.8941 14.6143 96.8882 13.1595 98.2136 12.2999C99.539 11.3741 101.328 11.0434 102.521 12.2337C102.389 12.4982 102.322 12.6966 102.19 12.895C102.256 12.895 102.322 12.8289 102.389 12.8289C103.184 12.4321 104.045 12.0354 104.907 11.7708C106.034 11.1096 107.293 10.6467 108.552 10.2499Z" fill="#EBE3CC"/>
<path d="M196.691 52.77C196.294 52.9683 195.896 53.2328 195.499 53.5635C193.908 54.7538 192.781 56.5392 191.522 58.1263C189.203 61.102 186.486 63.681 183.504 65.731C183.305 67.318 181.979 68.5745 180.588 68.5745C180.455 69.7648 180.389 70.8889 180.323 72.0792C176.611 76.5759 173.696 81.9984 171.906 87.8176C171.177 87.8837 170.382 88.016 169.653 88.0821C168.261 91.0579 166.936 93.9675 165.544 96.9432C164.749 97.1416 164.086 97.8029 163.424 98.4641C162.098 99.8528 160.773 101.242 160.044 103.159C159.116 105.54 159.381 108.383 158.453 110.764C157.923 112.02 157.128 113.078 156.73 114.335C156.399 115.393 156.465 116.649 156.995 117.509C156.863 117.84 156.664 118.104 156.531 118.435C154.61 119.36 152.953 121.08 151.892 123.262C151.362 123.527 150.766 123.725 150.236 123.989C149.175 125.51 148.115 127.031 147.055 128.552C146.061 128.618 145.067 128.751 144.073 128.817C142.88 130.205 141.753 131.594 140.56 133.049C141.952 133.38 143.277 133.776 144.669 134.107C144.802 134.9 144.536 135.76 144.006 136.355C144.073 138.273 144.139 140.191 144.205 142.108C143.741 143.1 143.211 144.026 142.747 145.018C142.018 145.878 141.422 146.936 141.223 148.06C141.223 148.126 141.157 148.192 141.157 148.258C139.5 147.729 137.843 147.663 136.186 147.994C136.716 149.713 137.313 151.366 137.843 153.086C136.319 155.665 134.795 158.31 133.27 160.889C133.999 162.013 133.138 163.666 132.011 164.063C130.885 164.46 129.626 163.997 128.565 163.468C129.095 165.782 128.565 168.361 127.24 170.146C128.035 170.543 128.101 171.866 127.704 172.725C127.306 173.585 126.511 174.114 125.914 174.709C124.059 176.561 123.065 179.272 122.071 181.851C121.474 183.504 120.878 185.157 120.281 186.811C118.823 190.844 115.51 191.969 113.787 195.87C113.588 196.333 114.118 197.986 114.383 199.243C114.052 199.904 113.654 200.499 113.257 201.16C113.19 201.227 113.058 201.226 112.925 201.293C111.534 201.822 110.009 204.599 109.943 204.599C109.943 204.599 109.612 205.657 109.545 206.583L109.28 206.517C109.28 205.591 109.347 204.665 109.413 203.739C109.413 203.409 109.479 203.012 109.479 202.681C109.479 202.549 109.479 202.417 109.479 202.218C109.479 201.888 109.545 201.557 109.545 201.16C109.678 199.639 109.811 198.185 110.009 196.664C110.076 196.267 110.076 195.87 110.142 195.54C110.208 195.143 110.208 194.746 110.274 194.415C110.54 192.432 110.871 190.448 111.136 188.464C111.269 187.803 111.335 187.207 111.467 186.612C111.732 185.29 111.931 183.901 112.196 182.579C112.395 181.719 112.528 180.859 112.726 180C112.859 179.206 113.058 178.412 113.257 177.619C113.257 177.553 113.257 177.487 113.323 177.421C113.853 174.842 114.516 172.263 115.112 169.684C115.178 169.485 115.178 169.353 115.245 169.155C115.377 168.493 115.576 167.832 115.775 167.171C115.907 166.642 116.04 166.113 116.173 165.584C116.239 165.319 116.305 164.989 116.438 164.724C116.902 162.939 117.432 161.219 117.962 159.434C118.558 157.516 119.088 155.665 119.751 153.813C120.083 152.887 120.348 151.961 120.679 151.036C124.788 138.868 129.692 127.097 135.59 115.856C136.451 114.136 137.379 112.417 138.373 110.698C138.837 109.904 139.301 109.045 139.699 108.251C139.765 108.185 139.765 108.119 139.831 108.053C139.897 107.854 140.03 107.722 140.096 107.524C142.416 103.49 144.868 99.5883 147.386 95.7529C148.513 94.0336 149.706 92.3804 150.898 90.7272C151.163 90.3305 151.495 89.9337 151.76 89.5369C152.555 88.4789 153.35 87.4208 154.146 86.3628C156.531 83.3209 158.917 80.3452 161.568 77.5678C164.086 74.7243 166.87 72.0792 169.653 69.5002C171.111 68.2438 172.503 67.0535 173.961 65.7971C174.69 65.202 175.419 64.6068 176.214 64.0778L178.467 62.4246C179.262 61.8956 179.991 61.3004 180.786 60.8375C181.582 60.3746 182.377 59.8456 183.172 59.3827C184.763 58.4569 186.287 57.465 188.01 56.6715C188.739 56.2747 189.534 55.9441 190.263 55.5473C190.329 55.5473 190.396 55.4812 190.462 55.4812C191.257 55.0844 192.119 54.6877 192.98 54.4231C194.173 53.5635 195.432 53.1667 196.691 52.77Z" fill="#EBE3CC"/>
<path d="M196.691 52.77C196.294 52.9683 195.896 53.2328 195.499 53.5635C193.908 54.7538 192.781 56.5392 191.522 58.1263C189.203 61.102 186.486 63.681 183.504 65.731C183.305 67.318 181.979 68.5745 180.588 68.5745C180.455 69.7648 180.389 70.8889 180.323 72.0792C176.611 76.5759 173.696 81.9984 171.906 87.8176C171.177 87.8837 170.382 88.016 169.653 88.0821C168.261 91.0579 166.936 93.9675 165.544 96.9432C164.749 97.1416 164.086 97.8029 163.424 98.4641C162.098 99.8528 160.773 101.242 160.044 103.159C159.116 105.54 159.381 108.383 158.453 110.764C157.923 112.02 157.128 113.078 156.73 114.335C156.399 115.393 156.465 116.649 156.995 117.509C156.863 117.84 156.664 118.104 156.531 118.435C154.61 119.36 152.953 121.08 151.892 123.262C151.362 123.527 150.766 123.725 150.236 123.989C149.175 125.51 148.115 127.031 147.055 128.552C146.061 128.618 145.067 128.751 144.073 128.817C142.88 130.205 141.753 131.594 140.56 133.049C141.952 133.38 143.277 133.776 144.669 134.107C144.802 134.9 144.536 135.76 144.006 136.355C144.073 138.273 144.139 140.191 144.205 142.108C143.741 143.1 143.211 144.026 142.747 145.018C142.018 145.878 141.422 146.936 141.223 148.06C141.223 148.126 141.157 148.192 141.157 148.258C139.5 147.729 137.843 147.663 136.186 147.994C136.716 149.713 137.313 151.366 137.843 153.086C136.319 155.665 134.795 158.31 133.27 160.889C133.999 162.013 133.138 163.666 132.011 164.063C130.885 164.46 129.626 163.997 128.565 163.468C129.095 165.782 128.565 168.361 127.24 170.146C128.035 170.543 128.101 171.866 127.704 172.725C127.306 173.585 126.511 174.114 125.914 174.709C124.059 176.561 123.065 179.272 122.071 181.851C121.474 183.504 120.878 185.157 120.281 186.811C118.823 190.844 115.51 191.969 113.787 195.87C113.588 196.333 114.118 197.986 114.383 199.243C114.052 199.904 113.654 200.499 113.257 201.16C113.19 201.227 113.058 201.226 112.925 201.293C111.534 201.822 110.009 204.599 109.943 204.599C109.943 204.599 109.612 205.657 109.545 206.583L109.28 206.517C109.28 205.591 109.347 204.665 109.413 203.739C109.413 203.409 109.479 203.012 109.479 202.681C109.479 202.549 109.479 202.417 109.479 202.218C109.479 201.888 109.545 201.557 109.545 201.16C109.678 199.639 109.811 198.185 110.009 196.664C110.076 196.267 110.076 195.87 110.142 195.54C110.076 194.548 110.009 193.556 109.811 192.564C109.612 191.704 109.413 190.778 109.545 189.919C109.744 188.53 110.738 187.604 111.467 186.546C111.732 185.224 111.931 183.835 112.196 182.512C112.395 181.653 112.528 180.793 112.726 179.933C112.859 179.14 113.058 178.346 113.257 177.553C113.257 177.487 113.257 177.421 113.323 177.354C112.992 175.966 112.461 174.643 111.732 173.585C112.66 172.064 113.853 170.676 115.178 169.617C115.245 169.419 115.245 169.287 115.311 169.088C115.444 168.427 115.642 167.766 115.841 167.105C115.974 166.576 116.106 166.047 116.239 165.518C116.305 165.253 116.371 164.922 116.504 164.658C116.636 164.261 116.703 163.864 116.835 163.468C116.173 160.558 117.167 157.185 119.221 155.4C119.42 154.871 119.552 154.276 119.751 153.747C120.083 152.821 120.348 151.895 120.679 150.969C120.745 150.771 120.811 150.573 120.878 150.374C120.745 149.845 120.745 149.25 120.745 148.721C121.01 145.481 122.004 142.373 123.661 139.728C124.39 138.537 125.318 137.479 125.848 136.157C127.107 133.247 126.71 129.544 128.433 127.031C129.162 126.039 130.156 125.312 130.62 124.188C131.547 122.204 130.818 119.162 132.409 117.84C132.873 117.443 133.469 117.311 133.867 116.782C134.53 115.79 133.801 114.269 134.132 113.078C134.596 111.425 136.584 111.359 138.108 110.896C138.174 110.83 138.174 110.764 138.241 110.632C138.705 109.838 139.168 108.978 139.566 108.185C139.632 108.119 139.632 108.053 139.699 107.987C139.765 107.788 139.897 107.656 139.964 107.458V107.391C140.096 105.143 141.753 103.49 143.012 101.771C144.271 100.051 145.332 97.4722 144.139 95.6868C144.934 96.1497 145.862 95.1578 146.259 94.1659C146.657 93.1739 146.922 91.9836 147.717 91.5207C148.38 91.124 149.109 91.3224 149.838 91.1901C150.236 91.124 150.567 90.9256 150.898 90.7272C151.163 90.3305 151.495 89.9337 151.76 89.5369C152.356 88.2805 152.356 86.6273 151.429 85.6354C153.35 85.1064 154.742 82.7258 154.411 80.4774C155.736 81.6016 157.459 79.9484 158.453 78.4275C160.574 75.1872 162.695 72.0131 164.815 68.7728C165.279 68.1116 165.743 67.3842 166.406 67.0535C167.665 66.3923 169.255 67.1858 170.448 66.3923C171.045 65.9955 171.376 65.2681 171.774 64.6068C174.292 60.8375 179.262 60.9037 182.642 58.1263C183.901 57.1344 184.895 55.7457 186.221 54.8199C187.546 53.8941 189.335 53.5635 190.528 54.7538C190.396 54.9522 190.329 55.2167 190.197 55.4151C190.263 55.4151 190.329 55.3489 190.396 55.3489C191.191 54.9522 192.053 54.5554 192.914 54.2909C194.173 53.5635 195.432 53.1667 196.691 52.77Z" fill="#EBE3CC"/>
<path d="M56.1976 23.0125C55.9325 23.1448 55.6674 23.3432 55.4023 23.5416C54.4083 24.3351 53.613 25.4593 52.8178 26.4512C51.2935 28.3689 49.5705 30.0221 47.6486 31.3446C47.5161 32.3365 46.6546 33.1962 45.7931 33.1962C45.7268 33.9236 45.6605 34.651 45.5942 35.4445C43.2085 38.3542 41.3529 41.7928 40.16 45.5621C39.6962 45.6282 39.166 45.6943 38.7021 45.7604C37.8406 47.6782 36.9128 49.5297 36.0513 51.4474C35.5211 51.5797 35.1235 51.9765 34.7259 52.4393C33.8643 53.299 33.0028 54.2248 32.5389 55.4151C31.9425 56.936 32.1413 58.7876 31.5449 60.3085C31.2135 61.1021 30.6833 61.7633 30.4183 62.623C30.2194 63.2843 30.2194 64.1439 30.6171 64.673C30.4845 64.8713 30.4183 65.0697 30.2857 65.2681C29.0266 65.8633 27.9662 66.9874 27.3035 68.3761C26.9722 68.5084 26.5746 68.7067 26.2432 68.839C25.5805 69.8309 24.8515 70.8228 24.1888 71.7486C23.5261 71.8147 22.9297 71.8809 22.267 71.947C21.538 72.8728 20.7427 73.7324 20.0138 74.6582C20.8753 74.9227 21.8031 75.1211 22.6646 75.3856C22.7309 75.9147 22.5983 76.4437 22.267 76.8404L22.3995 80.5436C22.0681 81.1387 21.7368 81.7339 21.4717 82.3952C21.0078 82.9242 20.6102 83.5855 20.4776 84.379C20.4776 84.379 20.4776 84.4451 20.4114 84.5112C19.351 84.1806 18.2907 84.1145 17.2304 84.3129C17.5617 85.437 17.9594 86.4951 18.2907 87.5531C17.2967 89.2063 16.3026 90.9256 15.3748 92.5788C15.8387 93.3062 15.3085 94.3643 14.5796 94.6288C13.8506 94.8933 13.0553 94.5626 12.3264 94.232C12.6577 95.6868 12.3264 97.34 11.4648 98.5303C11.995 98.7948 11.995 99.6545 11.7299 100.183C11.4648 100.713 11.0009 101.043 10.537 101.506C9.34417 102.696 8.68146 104.416 8.08503 106.069C7.6874 107.127 7.28978 108.185 6.95842 109.243C6.03063 111.822 3.90997 112.549 2.78337 115.062C2.65083 115.327 2.98218 116.385 3.18099 117.178C2.91591 117.575 2.7171 117.972 2.45202 118.435C2.38575 118.435 2.31947 118.501 2.2532 118.501C1.39169 118.831 0.397624 120.617 0.331354 120.617C0.331354 120.617 0.132541 121.278 0.0662707 121.939L0 121.807C0 121.146 0.0662707 120.485 0.0662707 119.823C0.0662707 119.493 0.132541 119.162 0.132541 118.831C0.132541 118.501 0.198812 118.104 0.198812 117.773C0.198812 117.443 0.265083 117.178 0.265083 116.848C0.265083 116.649 0.331354 116.451 0.331354 116.253C0.331354 115.988 0.397624 115.79 0.397624 115.525C0.397624 115.261 0.463895 114.93 0.530166 114.665C0.530166 114.401 0.596436 114.136 0.596436 113.938C0.728978 112.615 0.92779 111.359 1.19287 110.103C1.25914 109.706 1.32541 109.309 1.39168 108.912C1.52423 108.053 1.72304 107.193 1.85558 106.333C2.05439 105.209 2.31947 104.085 2.51829 103.027C2.84964 101.374 3.24726 99.7206 3.71116 98.0674C3.8437 97.4061 4.04251 96.7449 4.24133 96.0836C4.44014 95.4223 4.57268 94.761 4.77149 94.0998C5.03657 93.2401 5.30166 92.3804 5.50047 91.4547C5.76555 90.595 6.03063 89.7353 6.29572 88.8757C6.62707 87.8176 6.95842 86.6935 7.35605 85.6354C9.94061 77.9646 13.1216 70.5583 16.7665 63.4165C17.2967 62.3585 17.8931 61.3004 18.4233 60.2424C18.4895 60.1763 18.5558 60.044 18.5558 59.9779C18.8209 59.515 19.0197 59.1182 19.2848 58.6553C19.4173 58.457 19.4836 58.2586 19.6161 58.0602C21.0741 55.4812 22.6646 52.9684 24.3214 50.5216C25.0503 49.3975 25.7793 48.3394 26.5746 47.2814C26.7734 47.0169 26.9722 46.7524 27.1047 46.4879C27.6349 45.8266 28.0988 45.0992 28.6289 44.4379C30.1532 42.5202 31.7437 40.6025 33.4004 38.7509C35.0572 36.8993 36.7802 35.2462 38.5696 33.5268C39.4973 32.7333 40.4251 31.9398 41.3529 31.1462C41.8168 30.7495 42.2807 30.4188 42.8109 30.0221L44.2688 28.964C44.799 28.6334 45.2629 28.2366 45.7268 27.906C46.257 27.5754 46.7209 27.2447 47.251 26.9802C48.2451 26.3851 49.2391 25.7238 50.3657 25.2609C50.8296 24.9964 51.3598 24.798 51.8237 24.5335C51.89 24.5335 51.89 24.4674 51.9562 24.4674C52.4864 24.2028 53.0166 23.9383 53.5467 23.8061C54.5408 23.6077 55.4023 23.2771 56.1976 23.0125Z" fill="#EBE3CC"/>
<path d="M56.1976 23.0125C55.9325 23.1448 55.6674 23.3432 55.4023 23.5416C54.4083 24.3351 53.613 25.4593 52.8178 26.4512C51.2935 28.3689 49.5705 30.0221 47.6486 31.3446C47.5161 32.3365 46.6546 33.1962 45.7931 33.1962C45.7268 33.9236 45.6605 34.651 45.5942 35.4445C43.2085 38.3542 41.3529 41.7928 40.16 45.5621C39.6962 45.6282 39.166 45.6943 38.7021 45.7604C37.8406 47.6782 36.9128 49.5297 36.0513 51.4474C35.5211 51.5797 35.1235 51.9765 34.7259 52.4393C33.8643 53.299 33.0028 54.2248 32.5389 55.4151C31.9425 56.936 32.1413 58.7876 31.5449 60.3085C31.2135 61.1021 30.6833 61.7633 30.4183 62.623C30.2194 63.2843 30.2194 64.1439 30.6171 64.673C30.4845 64.8713 30.4183 65.0697 30.2857 65.2681C29.0266 65.8633 27.9662 66.9874 27.3035 68.3761C26.9722 68.5084 26.5746 68.7067 26.2432 68.839C25.5805 69.8309 24.8515 70.8228 24.1888 71.7486C23.5261 71.8147 22.9297 71.8809 22.267 71.947C21.538 72.8728 20.7427 73.7324 20.0138 74.6582C20.8753 74.9227 21.8031 75.1211 22.6646 75.3856C22.7309 75.9147 22.5983 76.4437 22.267 76.8404L22.3995 80.5436C22.0681 81.1387 21.7368 81.7339 21.4717 82.3952C21.0078 82.9242 20.6102 83.5855 20.4776 84.379C20.4776 84.379 20.4776 84.4451 20.4114 84.5112C19.351 84.1806 18.2907 84.1145 17.2304 84.3129C17.5617 85.437 17.9594 86.4951 18.2907 87.5531C17.2967 89.2063 16.3026 90.9256 15.3748 92.5788C15.8387 93.3062 15.3085 94.3643 14.5796 94.6288C13.8506 94.8933 13.0553 94.5626 12.3264 94.232C12.6577 95.6868 12.3264 97.34 11.4648 98.5303C11.995 98.7948 11.995 99.6545 11.7299 100.183C11.4648 100.713 11.0009 101.043 10.537 101.506C9.34417 102.696 8.68146 104.416 8.08503 106.069C7.6874 107.127 7.28978 108.185 6.95842 109.243C6.03063 111.822 3.90997 112.549 2.78337 115.062C2.65083 115.327 2.98218 116.385 3.18099 117.178C2.91591 117.575 2.7171 117.972 2.45202 118.435C2.38575 118.435 2.31947 118.501 2.2532 118.501C1.39169 118.831 0.397624 120.617 0.331354 120.617C0.331354 120.617 0.132541 121.278 0.0662707 121.939L0 121.807C0 121.146 0.0662707 120.485 0.0662707 119.823C0.0662707 119.493 0.132541 119.162 0.132541 118.831C0.132541 118.501 0.198812 118.104 0.198812 117.773C0.198812 117.443 0.265083 117.178 0.265083 116.848C0.265083 116.649 0.331354 116.451 0.331354 116.253C0.331354 115.988 0.397624 115.79 0.397624 115.525C0.397624 115.261 0.463895 114.93 0.530166 114.665C0.463895 114.004 0.397624 113.343 0.331354 112.748C0.198812 112.219 0.0662707 111.624 0.198812 111.095C0.331354 110.235 0.92779 109.574 1.45796 108.912C1.5905 108.053 1.78931 107.193 1.92185 106.333C2.12066 105.209 2.38575 104.085 2.58456 103.027C2.38575 102.167 2.05439 101.308 1.52423 100.58C2.12066 99.5883 2.84964 98.7287 3.71116 98.0674C3.8437 97.4061 4.04251 96.7449 4.24133 96.0836C4.44014 95.4223 4.57268 94.761 4.77149 94.0998C4.37387 92.2482 4.9703 90.066 6.29572 88.8757C6.62707 87.8176 6.95842 86.6935 7.35605 85.6354C7.22351 85.3048 7.28978 84.908 7.28978 84.5774C7.42232 82.5274 8.08503 80.4775 9.14536 78.8243C9.60925 78.0307 10.2057 77.3695 10.537 76.5098C11.3323 74.6582 11.0672 72.2776 12.1938 70.6244C12.6577 69.9632 13.3204 69.5003 13.6518 68.7729C14.2482 67.4503 13.7843 65.5326 14.8446 64.673C15.176 64.4084 15.5073 64.3423 15.7724 64.0117C16.2363 63.3504 15.7062 62.3585 15.905 61.6311C16.2363 60.573 17.4955 60.573 18.4233 60.2424C18.4895 60.1763 18.5558 60.044 18.5558 59.9779C18.8209 59.515 19.0197 59.1182 19.2848 58.6553C19.4173 58.457 19.4836 58.2586 19.6161 58.0602C19.6161 58.0602 19.6161 58.0602 19.6161 57.9941C19.6824 56.5393 20.7427 55.4812 21.538 54.357C22.3332 53.2329 22.9959 51.5797 22.267 50.3894C22.7971 50.72 23.3936 50.0587 23.5924 49.3975C23.7912 48.7362 23.99 48.0088 24.5202 47.6782C24.9178 47.4136 25.3817 47.5459 25.8456 47.4798C26.1107 47.4136 26.3095 47.3475 26.5083 47.1491C26.7071 46.8846 26.9059 46.6201 27.0384 46.3556C27.4361 45.5621 27.4361 44.504 26.8396 43.8428C28.0988 43.5121 28.9603 41.9912 28.7615 40.5364C29.623 41.2638 30.6833 40.2057 31.346 39.2138C32.7377 37.1639 34.0631 35.0478 35.4548 32.9978C35.7199 32.5349 36.0513 32.1382 36.4489 31.8736C37.2441 31.4769 38.3045 31.9398 39.0334 31.4769C39.4311 31.2124 39.6299 30.7495 39.895 30.3527C41.5517 27.906 44.7327 27.9721 46.8534 26.1867C47.6486 25.5254 48.3113 24.6657 49.1729 24.0706C50.0344 23.4754 51.161 23.2771 51.89 24.0045C51.8237 24.1367 51.7574 24.3351 51.6912 24.4674C51.7574 24.4674 51.7574 24.4012 51.8237 24.4012C52.3539 24.1367 52.884 23.8722 53.4142 23.7399C54.5408 23.6077 55.4023 23.2771 56.1976 23.0125Z" fill="#EBE3CC"/>
<path d="M212 98.5303C211.735 98.6625 211.47 98.8609 211.205 99.0593C210.211 99.8528 209.415 100.977 208.62 102.035C207.096 103.953 205.373 105.606 203.451 106.928C203.319 107.92 202.457 108.78 201.596 108.78C201.529 109.507 201.463 110.301 201.397 111.028C199.011 113.938 197.155 117.377 195.963 121.146C195.499 121.212 194.968 121.278 194.505 121.344C193.643 123.262 192.715 125.114 191.854 127.031C191.324 127.164 190.926 127.626 190.528 128.023C189.667 128.883 188.805 129.809 188.341 130.999C187.745 132.52 187.944 134.371 187.347 135.892C187.016 136.686 186.486 137.347 186.221 138.207C186.022 138.868 186.022 139.728 186.42 140.257C186.287 140.455 186.221 140.654 186.088 140.852C184.829 141.447 183.769 142.571 183.106 143.96C182.775 144.092 182.377 144.291 182.046 144.423C181.383 145.415 180.654 146.407 179.991 147.332C179.329 147.399 178.732 147.465 178.069 147.531C177.34 148.457 176.545 149.316 175.816 150.242C176.678 150.44 177.539 150.705 178.467 150.969C178.533 151.499 178.401 152.028 178.069 152.424C178.069 153.681 178.136 154.937 178.202 156.127C177.871 156.723 177.606 157.384 177.274 157.979C176.81 158.508 176.413 159.169 176.28 159.963C176.28 159.963 176.28 160.029 176.214 160.095C175.154 159.764 174.093 159.698 173.033 159.897C173.364 160.955 173.762 162.079 174.093 163.137C173.099 164.79 172.105 166.509 171.177 168.163C171.641 168.89 171.111 169.948 170.382 170.213C169.653 170.477 168.858 170.146 168.129 169.816C168.46 171.271 168.129 172.924 167.267 174.114C167.731 174.379 167.797 175.172 167.532 175.767C167.267 176.296 166.803 176.627 166.34 177.09C165.147 178.28 164.484 180 163.888 181.653C163.49 182.711 163.092 183.769 162.761 184.827C161.833 187.406 159.712 188.133 158.586 190.646C158.453 190.911 158.785 191.969 158.983 192.762C158.785 193.159 158.52 193.556 158.254 194.019C158.188 194.019 158.122 194.085 158.056 194.085C157.194 194.415 156.2 196.201 156.134 196.201C156.134 196.201 155.869 196.862 155.869 197.523L155.736 197.457C155.736 197.193 155.736 196.862 155.736 196.598C155.736 196.399 155.736 196.135 155.736 195.936C155.736 195.54 155.802 195.209 155.802 194.812C155.869 194.217 155.869 193.688 155.935 193.093C156.001 192.233 156.134 191.373 156.2 190.448C156.2 190.183 156.266 189.919 156.266 189.72C156.399 188.464 156.598 187.141 156.863 185.885C156.929 185.488 156.995 185.091 157.062 184.695C157.062 184.628 157.062 184.562 157.128 184.496C157.26 183.703 157.393 182.909 157.592 182.116C157.724 181.587 157.791 180.991 157.923 180.462C158.056 179.933 158.122 179.338 158.254 178.809C158.586 177.156 158.983 175.503 159.447 173.85C159.447 173.784 159.447 173.717 159.514 173.651C159.646 173.122 159.779 172.593 159.911 172.13C160.11 171.403 160.309 170.676 160.508 169.948C160.773 169.088 161.038 168.163 161.237 167.303C161.502 166.443 161.767 165.584 162.032 164.724C162.363 163.666 162.695 162.542 163.092 161.484C165.677 153.813 168.858 146.341 172.503 139.265C173.033 138.207 173.629 137.149 174.159 136.091C174.159 136.025 174.226 135.959 174.226 135.959C174.557 135.297 174.955 134.636 175.352 133.975C175.352 133.975 175.352 133.909 175.419 133.909C176.877 131.33 178.467 128.817 180.124 126.37C180.853 125.312 181.582 124.188 182.377 123.196C182.576 122.931 182.775 122.667 182.907 122.402C183.437 121.741 183.901 121.014 184.431 120.352C185.956 118.435 187.546 116.517 189.203 114.732C190.86 112.88 192.583 111.161 194.372 109.507C195.3 108.714 196.228 107.92 197.155 107.127C197.619 106.73 198.083 106.399 198.547 106.003L200.005 104.945C200.469 104.614 200.999 104.217 201.463 103.887C201.993 103.556 202.457 103.225 202.987 102.961C203.981 102.366 204.975 101.704 206.102 101.242C206.566 100.977 207.096 100.779 207.56 100.514C207.626 100.514 207.626 100.448 207.692 100.448C208.223 100.183 208.753 99.9189 209.283 99.7867C210.41 99.0593 211.205 98.7948 212 98.5303Z" fill="#EBE3CC"/>
<path d="M212 98.5303C211.735 98.6625 211.47 98.8609 211.205 99.0593C210.211 99.8528 209.415 100.977 208.62 102.035C207.096 103.953 205.373 105.606 203.451 106.928C203.319 107.92 202.457 108.78 201.596 108.78C201.529 109.507 201.463 110.301 201.397 111.028C199.011 113.938 197.155 117.377 195.963 121.146C195.499 121.212 194.968 121.278 194.505 121.344C193.643 123.262 192.715 125.114 191.854 127.031C191.324 127.164 190.926 127.626 190.528 128.023C189.667 128.883 188.805 129.809 188.341 130.999C187.745 132.52 187.944 134.371 187.347 135.892C187.016 136.686 186.486 137.347 186.221 138.207C186.022 138.868 186.022 139.728 186.42 140.257C186.287 140.455 186.221 140.654 186.088 140.852C184.829 141.447 183.769 142.571 183.106 143.96C182.775 144.092 182.377 144.291 182.046 144.423C181.383 145.415 180.654 146.407 179.991 147.332C179.329 147.399 178.732 147.465 178.069 147.531C177.34 148.457 176.545 149.316 175.816 150.242C176.678 150.44 177.539 150.705 178.467 150.969C178.533 151.499 178.401 152.028 178.069 152.424C178.069 153.681 178.136 154.937 178.202 156.127C177.871 156.723 177.606 157.384 177.274 157.979C176.81 158.508 176.413 159.169 176.28 159.963C176.28 159.963 176.28 160.029 176.214 160.095C175.154 159.764 174.093 159.698 173.033 159.897C173.364 160.955 173.762 162.079 174.093 163.137C173.099 164.79 172.105 166.509 171.177 168.163C171.641 168.89 171.111 169.948 170.382 170.213C169.653 170.477 168.858 170.146 168.129 169.816C168.46 171.271 168.129 172.924 167.267 174.114C167.731 174.379 167.797 175.172 167.532 175.767C167.267 176.296 166.803 176.627 166.34 177.09C165.147 178.28 164.484 180 163.888 181.653C163.49 182.711 163.092 183.769 162.761 184.827C161.833 187.406 159.712 188.133 158.586 190.646C158.453 190.911 158.785 191.969 158.983 192.762C158.785 193.159 158.52 193.556 158.254 194.019C158.188 194.019 158.122 194.085 158.056 194.085C157.194 194.415 156.2 196.201 156.134 196.201C156.134 196.201 155.869 196.862 155.869 197.523L155.736 197.457C155.736 197.193 155.736 196.862 155.736 196.598C155.736 196.399 155.736 196.135 155.736 195.936C155.736 195.54 155.802 195.209 155.802 194.812C155.869 194.217 155.869 193.688 155.935 193.093C156.001 192.233 156.134 191.373 156.2 190.448C156.134 189.786 156.134 189.125 156.001 188.53C155.869 188.001 155.736 187.406 155.802 186.877C155.935 186.017 156.531 185.356 157.062 184.695C157.062 184.628 157.062 184.562 157.128 184.496C157.26 183.703 157.393 182.909 157.592 182.116C157.724 181.587 157.791 180.991 157.923 180.462C158.056 179.933 158.122 179.338 158.254 178.809C158.056 177.95 157.724 177.09 157.194 176.363C157.791 175.371 158.52 174.511 159.381 173.85C159.381 173.784 159.381 173.717 159.447 173.651C159.58 173.122 159.712 172.593 159.845 172.13C160.044 171.403 160.243 170.676 160.441 169.948C160.044 168.097 160.64 165.914 161.966 164.724C162.297 163.666 162.628 162.542 163.026 161.484C162.893 161.153 162.893 160.756 162.96 160.426C163.092 158.376 163.755 156.326 164.815 154.673C165.279 153.879 165.876 153.218 166.207 152.358C167.002 150.507 166.737 148.126 167.864 146.473C168.328 145.812 168.99 145.349 169.322 144.621C169.918 143.299 169.454 141.381 170.515 140.521C170.846 140.257 171.177 140.191 171.442 139.86C171.906 139.199 171.376 138.273 171.575 137.479C171.84 136.421 173.165 136.355 174.093 136.025C174.093 135.959 174.159 135.892 174.159 135.892C174.491 135.231 174.888 134.57 175.286 133.909C175.286 133.909 175.286 133.842 175.352 133.842V133.776C175.419 132.321 176.479 131.263 177.274 130.139C178.069 129.015 178.732 127.362 178.003 126.238C178.533 126.568 179.13 125.907 179.329 125.246C179.594 124.585 179.726 123.857 180.256 123.527C180.654 123.262 181.118 123.394 181.582 123.328C181.847 123.262 182.046 123.196 182.244 122.997C182.443 122.733 182.642 122.468 182.775 122.204C183.106 121.41 183.106 120.352 182.576 119.691C183.835 119.36 184.697 117.84 184.498 116.385C185.359 117.112 186.42 116.054 187.082 115.062C188.474 113.012 189.799 110.896 191.191 108.846C191.456 108.383 191.787 107.987 192.185 107.722C192.98 107.325 194.041 107.788 194.77 107.259C195.167 106.995 195.366 106.532 195.631 106.135C197.222 103.754 200.469 103.754 202.59 101.969C203.385 101.308 204.048 100.448 204.909 99.8528C205.771 99.2577 206.897 99.0593 207.692 99.7867C207.626 99.9189 207.56 100.051 207.494 100.25C207.56 100.25 207.56 100.183 207.626 100.183C208.156 99.919 208.687 99.6544 209.217 99.5222C210.41 99.0593 211.205 98.7948 212 98.5303Z" fill="#EBE3CC"/>
<path d="M178.931 0.396884C175.087 1.91782 171.774 5.2242 168.858 8.66284C158.984 20.3013 151.628 34.5849 141.223 45.6282C140.295 51.9764 136.584 57.7957 131.614 60.573C129.096 61.6972 126.312 61.8956 123.661 61.1021C124.788 62.623 125.848 64.2101 126.975 65.731C124.921 66.3261 124.854 69.6325 124.854 72.0792C124.788 81.2048 118.824 88.6111 113.986 95.8191C108.817 103.49 104.575 111.888 100.334 120.286C99.2738 122.402 98.2135 124.452 97.1531 126.568C94.3698 132.123 90.5923 138.339 85.0256 138.604C83.6339 138.67 82.1759 138.339 80.9168 138.934C79.6577 139.529 78.7961 141.646 79.7902 142.77C83.0375 141.579 85.8871 145.812 86.7486 149.647C87.6101 153.086 86.8149 158.244 83.7002 158.244C83.5676 159.698 83.4351 161.153 83.3025 162.542C79.26 166.51 75.2175 170.543 71.175 174.511C71.9703 177.288 71.8377 180.396 70.8436 183.108C69.0543 185.091 65.8733 185.025 64.1503 182.909C64.084 185.224 64.084 187.472 64.0178 189.786C63.0237 189.919 62.1622 190.448 61.4332 191.175C62.1622 192.233 62.9574 193.291 63.6864 194.349C61.632 198.846 59.5114 203.409 57.457 207.905C55.8665 211.344 54.276 214.783 52.3541 217.957C51.3601 219.544 49.8358 220.8 48.1791 219.941C48.1791 222.387 48.1791 225.032 48.8418 227.215C48.5104 227.81 48.1128 228.339 47.7814 228.934L46.9199 228.603C47.0525 223.115 47.5826 217.692 48.2453 212.336C48.1791 210.815 48.0465 209.294 47.7152 207.839C47.4501 206.583 47.1187 205.26 47.3175 203.938C47.5826 202.02 48.908 200.631 50.0346 199.11C49.1731 198.581 48.1791 198.251 47.2513 198.185C49.3057 194.217 50.6974 189.786 51.2938 185.158C51.4263 184.099 51.4926 183.041 51.8902 182.049C51.4926 181.19 51.0287 180.33 50.4985 179.537C51.824 177.354 53.4145 175.437 55.27 173.916C55.4026 171.535 54.8061 169.155 53.4807 167.303C54.4748 167.039 55.4688 166.708 56.4629 166.443C56.5954 165.187 57.1256 164.063 57.722 163.005C57.3907 159.566 58.5173 155.863 60.638 153.416C60.7705 150.837 60.3729 148.192 59.5114 145.812C62.2285 145.745 63.6201 141.778 63.3551 138.67C63.09 135.496 61.8971 132.388 62.4935 129.28C64.4817 129.743 66.7349 128.288 67.4638 126.106C67.7952 125.047 67.8615 123.791 68.1266 122.667C68.8555 119.757 70.9762 117.84 73.2294 115.988C73.627 113.938 74.1572 112.02 75.2838 110.367C76.3441 108.912 77.8021 107.788 78.5973 106.135C79.989 103.159 78.8624 98.6626 81.3144 96.7449C81.5795 96.5465 81.8446 96.3481 82.1759 96.2158C82.2422 96.1497 82.3085 96.0174 82.3085 95.9513C82.7061 95.0917 82.7724 94.0336 82.9712 93.0417C83.1037 92.3143 83.3688 91.5869 83.7002 90.9918C83.7002 90.5289 83.7002 90.066 83.8327 89.6692C84.4954 87.2225 87.4113 87.1563 89.6645 86.4289C88.4054 84.5112 87.2788 82.329 87.4113 80.0146C87.6101 77.4356 90.4598 75.2534 92.1165 76.9727C95.2975 74.7243 97.1531 70.2938 96.7555 65.9955C97.6833 66.1278 98.6111 65.7971 99.34 65.2681C99.2075 64.7391 99.0087 64.2762 98.7436 63.8133C99.8702 64.4746 101.063 63.2843 101.726 61.9617C102.123 60.6392 102.19 59.1843 101.66 57.9279C102.389 58.0602 103.117 58.0602 103.846 57.8618C103.913 57.7957 103.979 57.7295 104.112 57.6634C104.377 57.465 104.708 57.3989 105.039 57.3328C106.1 56.7376 106.961 55.8118 107.491 54.5554C108.287 54.6877 109.082 54.7538 109.943 54.8861C110.01 54.8199 110.01 54.7538 110.076 54.6877C110.142 54.6215 110.142 54.5554 110.208 54.4232C110.01 53.4312 109.811 52.4393 109.612 51.4474C109.016 48.6701 108.485 45.5621 109.612 43.0492C110.805 40.4041 113.323 39.0816 115.51 37.4945C121.276 33.1301 124.655 25.7238 129.56 20.169C131.813 17.5901 134.397 15.3417 137.247 13.6224C139.169 12.4321 141.289 11.5063 143.41 11.7047C144.47 11.837 145.398 12.2337 146.26 12.895C149.573 11.4402 153.218 10.4483 156.068 8.13382C157.923 6.61288 159.448 4.56292 161.369 3.17424C163.291 1.78556 166.008 1.32267 167.731 3.10812C167.599 3.43875 167.4 3.76939 167.201 4.16616C167.268 4.10003 167.4 4.10003 167.466 4.0339C168.725 3.50488 169.918 2.84361 171.178 2.44684C173.696 1.52105 176.214 0.661394 178.799 -0.0660095L178.931 0.396884Z" fill="#EBE3CC"/>
</g>
<defs>
<clipPath id="clip0_1_918">
<rect width="212" height="229" fill="white"/>
</clipPath>
</defs>
</svg>
