<svg width="215" height="46" viewBox="0 0 215 46" fill="none" xmlns="http://www.w3.org/2000/svg">
<ellipse cx="61.5" cy="23" rx="23" ry="61.5" transform="rotate(-90 61.5 23)" fill="#062D3E"/>
<path d="M65.042 24C65.5943 24 66.042 23.5523 66.042 23C66.042 22.4477 65.5943 22 65.042 22L65.042 24ZM40.2933 22.2929C39.9027 22.6834 39.9027 23.3166 40.2933 23.7071L46.6572 30.0711C47.0477 30.4616 47.6809 30.4616 48.0714 30.0711C48.462 29.6805 48.462 29.0474 48.0714 28.6569L42.4146 23L48.0714 17.3431C48.462 16.9526 48.462 16.3195 48.0714 15.9289C47.6809 15.5384 47.0477 15.5384 46.6572 15.9289L40.2933 22.2929ZM65.042 22L41.0004 22L41.0004 24L65.042 24L65.042 22Z" fill="white"/>
<path d="M153.5 45C136.605 45 121.354 42.4373 110.363 38.3268C104.864 36.2702 100.483 33.8454 97.4954 31.2035C94.5061 28.5604 93 25.7859 93 23C93 20.2141 94.5061 17.4396 97.4954 14.7965C100.483 12.1546 104.864 9.7298 110.363 7.67318C121.354 3.56273 136.605 0.999997 153.5 0.999997C170.395 0.999998 185.646 3.56273 196.637 7.67319C202.136 9.72981 206.517 12.1546 209.505 14.7965C212.494 17.4396 214 20.2141 214 23C214 25.7859 212.494 28.5604 209.505 31.2035C206.517 33.8454 202.136 36.2702 196.637 38.3268C185.646 42.4373 170.395 45 153.5 45Z" fill="#062D3E" stroke="#FFFAF5" stroke-width="2"/>
<path d="M141 22C140.448 22 140 22.4477 140 23C140 23.5523 140.448 24 141 24V22ZM165.749 23.7071C166.139 23.3166 166.139 22.6834 165.749 22.2929L159.385 15.9289C158.994 15.5384 158.361 15.5384 157.971 15.9289C157.58 16.3195 157.58 16.9526 157.971 17.3431L163.627 23L157.971 28.6569C157.58 29.0474 157.58 29.6805 157.971 30.0711C158.361 30.4616 158.994 30.4616 159.385 30.0711L165.749 23.7071ZM141 24H165.042V22H141V24Z" fill="white"/>
</svg>
