<svg width="215" height="46" viewBox="0 0 215 46" fill="none" xmlns="http://www.w3.org/2000/svg">
<ellipse cx="61.5029" cy="23.0022" rx="23" ry="61.5" transform="rotate(-90 61.5029 23.0022)" fill="#062D3E"/>
<path d="M65.0449 24.0022C65.5971 24.0022 66.0449 23.5545 66.0449 23.0022C66.0449 22.4499 65.5971 22.0022 65.0449 22.0022L65.0449 24.0022ZM40.2961 22.2951C39.9056 22.6856 39.9056 23.3188 40.2961 23.7093L46.6601 30.0733C47.0506 30.4638 47.6838 30.4638 48.0743 30.0733C48.4648 29.6827 48.4648 29.0496 48.0743 28.6591L42.4174 23.0022L48.0743 17.3453C48.4648 16.9548 48.4648 16.3217 48.0743 15.9311C47.6838 15.5406 47.0506 15.5406 46.6601 15.9311L40.2961 22.2951ZM65.0449 22.0022L41.0032 22.0022L41.0032 24.0022L65.0449 24.0022L65.0449 22.0022Z" fill="white"/>
<path d="M153.503 45.0022C136.608 45.0022 121.357 42.4395 110.366 38.329C104.867 36.2724 100.486 33.8476 97.4982 31.2057C94.509 28.5626 93.0029 25.7881 93.0029 23.0022C93.0029 20.2163 94.509 17.4418 97.4982 14.7987C100.486 12.1568 104.867 9.73201 110.366 7.67539C121.357 3.56494 136.608 1.00221 153.503 1.00221C170.398 1.00221 185.649 3.56494 196.64 7.6754C202.139 9.73202 206.52 12.1568 209.507 14.7987C212.497 17.4418 214.003 20.2163 214.003 23.0022C214.003 25.7881 212.497 28.5626 209.507 31.2057C206.52 33.8476 202.139 36.2724 196.64 38.329C185.649 42.4395 170.398 45.0022 153.503 45.0022Z" fill="#062D3E" stroke="#FFFAF5" stroke-width="2"/>
<path d="M141.003 22.0022C140.451 22.0022 140.003 22.4499 140.003 23.0022C140.003 23.5545 140.451 24.0022 141.003 24.0022V22.0022ZM165.752 23.7093C166.142 23.3188 166.142 22.6856 165.752 22.2951L159.388 15.9311C158.997 15.5406 158.364 15.5406 157.973 15.9311C157.583 16.3217 157.583 16.9548 157.973 17.3454L163.63 23.0022L157.973 28.6591C157.583 29.0496 157.583 29.6828 157.973 30.0733C158.364 30.4638 158.997 30.4638 159.388 30.0733L165.752 23.7093ZM141.003 24.0022H165.044V22.0022H141.003V24.0022Z" fill="white"/>
</svg>
