<svg width="132" height="132" viewBox="0 0 132 132" fill="none" xmlns="http://www.w3.org/2000/svg">
<path d="M2.55873 73.2559L2.3054 73.9618L2.55872 73.2559C1.56417 72.899 1.43362 71.5457 2.3416 71.0052L3.3283 70.418C5.18705 69.3116 5.09983 66.5915 3.17401 65.6065L2.15172 65.0836C1.21096 64.6025 1.25454 63.2436 2.22419 62.8237L3.27788 62.3674C5.26285 61.5078 5.52418 58.7989 3.74013 57.5757L2.79309 56.9264C1.92159 56.3289 2.13858 54.9868 3.15396 54.6943L4.25736 54.3765C6.33594 53.7778 6.94154 51.1245 5.32856 49.6833L4.47232 48.9182C3.68438 48.2142 4.07123 46.9108 5.11567 46.7505L6.25065 46.5765C8.38872 46.2485 9.32864 43.6944 7.9132 42.0588L7.16183 41.1905C6.4704 40.3914 7.02074 39.1482 8.0771 39.1229L9.22501 39.0953C11.3875 39.0435 12.6463 36.6306 11.4516 34.8273L10.8175 33.8701C10.2339 32.9892 10.9387 31.8266 11.9896 31.9365L13.1316 32.056C15.283 32.2811 16.84 30.049 15.8857 28.1078L15.3792 27.0773C14.913 26.129 15.7607 25.066 16.789 25.3095L17.9063 25.574C20.0112 26.0724 21.8409 24.0577 21.1427 22.0104L20.7721 20.9236C20.4311 19.9235 21.4077 18.9776 22.3964 19.3506L23.4707 19.7558C25.4946 20.5193 27.5669 18.7551 27.1363 16.6353L26.9077 15.5101C26.6973 14.4746 27.7869 13.6614 28.7198 14.1577L29.7335 14.697C31.6431 15.713 33.924 14.2283 33.768 12.0708L33.6851 10.9256C33.6089 9.87167 34.7936 9.20449 35.6553 9.816L36.5917 10.4805C38.3558 11.7324 40.8078 10.5515 40.9289 8.39185L40.9932 7.2454C41.0524 6.1904 42.3126 5.68019 43.0891 6.39688L43.9328 7.17569C45.5223 8.64283 48.1052 7.78525 48.5015 5.65879L48.7119 4.52997C48.9055 3.4912 50.2206 3.14633 50.899 3.95643L51.6363 4.83675C53.0251 6.4951 55.6964 5.97486 56.3614 3.91653L56.7144 2.82388C57.0393 1.8184 58.3877 1.64454 58.957 2.53474L59.5756 3.50211C60.7409 5.32444 63.4569 5.15008 64.3796 3.19368L64.8694 2.15515C65.3202 1.19946 66.6798 1.19946 67.1306 2.15515L67.6204 3.19368C68.5431 5.15008 71.2591 5.32444 72.4244 3.50211L73.043 2.53474C73.6123 1.64454 74.9607 1.8184 75.2856 2.82389L75.6386 3.91653C76.3036 5.97486 78.9749 6.4951 80.3637 4.83675L81.101 3.95643C81.7794 3.14633 83.0945 3.4912 83.2881 4.52997L83.4985 5.65879C83.8948 7.78525 86.4777 8.64283 88.0672 7.17569L88.9109 6.39688C89.6874 5.68018 90.9476 6.1904 91.0068 7.2454L91.0711 8.39185C91.1922 10.5515 93.6442 11.7324 95.4083 10.4805L96.3447 9.816C97.2064 9.20449 98.3911 9.87167 98.3149 10.9256L98.232 12.0708C98.076 14.2283 100.357 15.713 102.267 14.697L103.28 14.1577C104.213 13.6614 105.303 14.4746 105.092 15.5101L104.864 16.6353C104.433 18.7551 106.505 20.5193 108.529 19.7558L109.604 19.3506C110.592 18.9776 111.569 19.9235 111.228 20.9236L111.938 21.1657L111.228 20.9236L110.857 22.0104C110.159 24.0577 111.989 26.0724 114.094 25.574L115.211 25.3095C116.239 25.066 117.087 26.129 116.621 27.0773L116.114 28.1078C115.16 30.049 116.717 32.2811 118.868 32.056L120.01 31.9365C121.061 31.8266 121.766 32.9892 121.183 33.8701L120.548 34.8273C119.354 36.6306 120.613 39.0435 122.775 39.0953L123.923 39.1229C124.979 39.1482 125.53 40.3914 124.838 41.1905L124.087 42.0588C122.671 43.6944 123.611 46.2485 125.749 46.5765L126.884 46.7505C127.929 46.9108 128.316 48.2142 127.528 48.9182L126.671 49.6833C125.058 51.1245 125.664 53.7778 127.743 54.3765L128.846 54.6943C129.861 54.9868 130.078 56.3289 129.207 56.9264L128.26 57.5757C126.476 58.7989 126.737 61.5078 128.722 62.3674L129.776 62.8237C130.745 63.2436 130.789 64.6025 129.848 65.0836L128.826 65.6065C126.9 66.5915 126.813 69.3116 128.672 70.418L129.658 71.0052C130.566 71.5457 130.436 72.899 129.441 73.2559L128.361 73.6438C126.325 74.3744 125.89 77.061 127.592 78.396L128.496 79.1046C129.327 79.7567 129.025 81.0822 127.993 81.309L126.871 81.5555C124.758 82.0198 123.984 84.6288 125.501 86.1704L126.307 86.9888C127.048 87.7419 126.578 89.0178 125.526 89.1108L124.382 89.2118C122.227 89.4021 121.126 91.8907 122.434 93.6137L123.128 94.5283C123.767 95.37 123.138 96.5754 122.082 96.533L120.935 96.487C118.773 96.4002 117.362 98.7275 118.439 100.604L119.011 101.599C119.537 102.516 118.759 103.631 117.717 103.454L116.585 103.262C114.452 102.899 112.756 105.027 113.584 107.025L114.023 108.086C114.427 109.062 113.513 110.069 112.503 109.76L111.405 109.424C109.336 108.792 107.381 110.685 107.947 112.773L108.247 113.882C108.523 114.901 107.488 115.783 106.525 115.347L105.479 114.874C103.508 113.982 101.327 115.61 101.621 117.753L101.777 118.891C101.921 119.938 100.781 120.679 99.8821 120.124L98.905 119.521C97.0644 118.385 94.6931 119.72 94.7106 121.883L94.7198 123.032C94.7284 124.088 93.5034 124.678 92.6826 124.013L91.7907 123.29C90.1105 121.927 87.5879 122.949 87.3286 125.096L87.191 126.236C87.0644 127.285 85.774 127.714 85.0451 126.949L84.253 126.117C82.7607 124.551 80.1282 125.242 79.5965 127.338L79.3142 128.451C79.0545 129.476 77.7199 129.736 77.0948 128.884L76.4155 127.958C75.1358 126.214 72.4366 126.562 71.6411 128.573L71.2188 129.641C70.8302 130.624 69.4734 130.711 68.9623 129.786L68.407 128.781C67.3608 126.888 64.6392 126.888 63.593 128.781L63.0377 129.786C62.5266 130.711 61.1698 130.624 60.7812 129.641L60.3589 128.573C59.5634 126.562 56.8642 126.214 55.5845 127.958L54.9052 128.884C54.2801 129.736 52.9455 129.476 52.6858 128.451L52.4035 127.338C51.8718 125.242 49.2393 124.551 47.7471 126.117L46.9549 126.949C46.226 127.714 44.9356 127.285 44.809 126.236L44.6714 125.096C44.4121 122.949 41.8895 121.927 40.2093 123.29L39.3174 124.013C38.4966 124.678 37.2716 124.088 37.2802 123.032L37.2894 121.883C37.3069 119.72 34.9356 118.385 33.095 119.521L32.1179 120.124C31.2188 120.679 30.0793 119.938 30.2229 118.891L30.3789 117.753C30.6729 115.61 28.4918 113.982 26.521 114.874L25.4748 115.347C24.5121 115.783 23.4768 114.901 23.7531 113.882L24.0533 112.773C24.6189 110.685 22.6639 108.792 20.5953 109.424L19.4971 109.76C18.4866 110.069 17.5726 109.062 17.977 108.086L18.4165 107.025C19.2444 105.027 17.5475 102.899 15.4151 103.262L14.283 103.454C13.2413 103.631 12.4635 102.516 12.9894 101.599L13.5609 100.604C14.6376 98.7275 13.2268 96.4002 11.0654 96.487L9.91813 96.533C8.86232 96.5754 8.23345 95.37 8.87227 94.5283L8.27486 94.0749L8.87227 94.5283L9.56647 93.6137C10.8742 91.8907 9.77257 89.4021 7.61788 89.2118L6.47408 89.1108C5.42152 89.0178 4.95196 87.7419 5.69317 86.9888L6.49863 86.1704C8.01596 84.6288 7.24161 82.0197 5.12893 81.5555L4.00744 81.309C2.97542 81.0822 2.67287 79.7567 3.5043 79.1046L4.4078 78.396C6.10981 77.061 5.67545 74.3744 3.6395 73.6438L2.55873 73.2559Z" fill="#ED5C01" stroke="#062D3E" stroke-width="1.5"/>
</svg>
